<svg width="500" height="500" viewBox="0 0 500 500" fill="none" xmlns="http://www.w3.org/2000/svg">
<circle cx="250" cy="250" r="241" fill="white" stroke="#4A6FA5" stroke-width="18"/>
<circle cx="250" cy="250" r="200" fill="#F5B69D"/>
<circle cx="250" cy="250" r="200"/>
<mask id="path-3-inside-1_2_48" fill="white">
<path d="M167.842 370.17C164.224 375.473 165.57 382.747 171.127 385.962C189.001 396.303 208.78 403.024 229.334 405.695C253.738 408.866 278.545 406.238 301.743 398.023C324.94 389.808 345.874 376.238 362.843 358.415C377.135 343.404 388.276 325.733 395.658 306.447C397.953 300.452 394.422 293.952 388.272 292.108C382.123 290.264 375.69 293.779 373.318 299.745C367.036 315.54 357.776 330.021 346.005 342.384C331.557 357.559 313.733 369.113 293.982 376.107C274.231 383.102 253.108 385.34 232.33 382.64C215.402 380.441 199.092 375.014 184.27 366.693C178.672 363.55 171.461 364.867 167.842 370.17Z"/>
</mask>
<path d="M167.842 370.17C164.224 375.473 165.57 382.747 171.127 385.962C189.001 396.303 208.78 403.024 229.334 405.695C253.738 408.866 278.545 406.238 301.743 398.023C324.94 389.808 345.874 376.238 362.843 358.415C377.135 343.404 388.276 325.733 395.658 306.447C397.953 300.452 394.422 293.952 388.272 292.108C382.123 290.264 375.69 293.779 373.318 299.745C367.036 315.54 357.776 330.021 346.005 342.384C331.557 357.559 313.733 369.113 293.982 376.107C274.231 383.102 253.108 385.34 232.33 382.64C215.402 380.441 199.092 375.014 184.27 366.693C178.672 363.55 171.461 364.867 167.842 370.17Z" stroke="#FAAA86" stroke-width="42" mask="url(#path-3-inside-1_2_48)"/>
<circle cx="393.5" cy="270.5" r="11.5" fill="#FAAA86"/>
</svg>
